<!-- ISC License

Copyright (c) for portions of Lucide are held by Cole Bemis 2013-2022 as part of Feather (MIT). All
other copyright (c) for Lucide are held by Lucide Contributors 2022.

Permission to use, copy, modify, and/or distribute this software for any purpose with or without fee
is hereby granted, provided that the above copyright notice and this permission notice appear in all
copies.

THE SOFTWARE IS PROVIDED "AS IS" AND THE AUTHOR DISCLAIMS ALL WARRANTIES WITH REGARD TO THIS
SOFTWARE INCLUDING ALL IMPLIED WARRANTIES OF MERCHANTABILITY AND FITNESS. IN NO EVENT SHALL THE
AUTHOR BE LIABLE FOR ANY SPECIAL, DIRECT, INDIRECT, OR CONSEQUENTIAL DAMAGES OR ANY DAMAGES
WHATSOEVER RESULTING FROM LOSS OF USE, DATA OR PROFITS, WHETHER IN AN ACTION OF CONTRACT, NEGLIGENCE
OR OTHER TORTIOUS ACTION, ARISING OUT OF OR IN CONNECTION WITH THE USE OR PERFORMANCE OF THIS
SOFTWARE. -->
<svg xmlns="http://www.w3.org/2000/svg" width="24" height="24" viewBox="0 0 24 24" fill="none"
  stroke="#b1edff" stroke-width="1.75" stroke-linecap="round" stroke-linejoin="round"
  class="lucide lucide-snowflake">
  <path d="m10 20-1.25-2.5L6 18" />
  <path d="M10 4 8.75 6.5 6 6" />
  <path d="m14 20 1.25-2.5L18 18" />
  <path d="m14 4 1.25 2.5L18 6" />
  <path d="m17 21-3-6h-4" />
  <path d="m17 3-3 6 1.5 3" />
  <path d="M2 12h6.5L10 9" />
  <path d="m20 10-1.5 2 1.5 2" />
  <path d="M22 12h-6.5L14 15" />
  <path d="m4 10 1.5 2L4 14" />
  <path d="m7 21 3-6-1.5-3" />
  <path d="m7 3 3 6h4" />
</svg>